<svg display="none" xmlns="http://www.w3.org/2000/svg">
    <symbol id="door" viewBox="0 0 46 69">
        <path d="M0.462463 61.764C0.465641 62.7325 1.24914 63.5174 2.21771 63.5223L12.0036 63.5393C12.9714 63.5384 13.7563 62.7549 13.7588 61.7871V6.67688C13.756 5.70866 12.9718 4.92446 12.0036 4.92163H2.21772C1.2495 4.92446 0.465297 5.70866 0.462463 6.67688L0.462463 61.764Z" fill="#63D2C1"/>
        <path fill-rule="evenodd" clip-rule="evenodd" d="M16.884 0.522362C17.2226 0.239506 17.6735 0.130391 18.1039 0.227179L43.7352 4.85846C44.7175 5.06878 45.4298 5.92177 45.4616 6.92582L45.4335 61.6248C45.4007 62.6288 44.6875 63.4811 43.705 63.6904L18.1043 68.2886C17.6736 68.3848 17.2226 68.2752 16.8841 67.9921C16.5456 67.709 16.3581 67.2845 16.3766 66.8436V1.67033C16.3579 1.22957 16.5455 0.805218 16.884 0.522362ZM40.5116 61.0167C41.4941 60.8074 42.2073 59.9552 42.2401 58.9512L42.2629 9.59595C42.2311 8.5919 41.5187 7.73891 40.5364 7.52861L21.3 4.05302C20.8696 3.95625 20.4187 4.06537 20.0802 4.34822C19.7416 4.63107 19.5541 5.05541 19.5728 5.49617V63.0213C19.5542 63.4622 19.7418 63.8866 20.0803 64.1698C20.4188 64.4529 20.8697 64.5625 21.3004 64.4663L40.5116 61.0167Z" fill="#63D2C1"/>
        <path d="M24.7297 34.2571C24.4856 35.1736 23.5813 35.7514 22.647 35.5877C21.7128 35.4239 21.0588 34.5731 21.141 33.6282C21.2232 32.6832 22.0142 31.958 22.9627 31.958C24.075 32.123 24.8565 33.1398 24.7297 34.2571Z" fill="#63D2C1"/>
    </symbol>
    <symbol id="phone" viewBox="0 0 26 26">
        <path fill-rule="evenodd" clip-rule="evenodd" d="M25 13.4323C24.9922 6.56937 19.4306 1.00781 12.5677 1C12.1971 1 11.8967 1.30044 11.8967 1.67106C11.8967 2.04168 12.1971 2.34212 12.5677 2.34212C18.69 2.349 23.6514 7.31037 23.6582 13.4326C23.6583 13.6723 23.7862 13.8938 23.9938 14.0136C24.2014 14.1334 24.4572 14.1333 24.6647 14.0134C24.8723 13.8935 25.0001 13.672 25 13.4323ZM18.761 24.9773C17.6318 24.9543 16.5128 24.7587 15.4428 24.3972C12.259 23.2724 9.38968 21.4041 7.07323 18.9474C2.85911 14.7329 1.04261 11.4885 1.00005 8.0978C0.997814 7.91987 1.06635 7.74833 1.1906 7.62094C1.31484 7.49354 1.4846 7.42072 1.66253 7.4185H1.67111C2.03827 7.41866 2.33713 7.71386 2.34182 8.08098C2.37993 11.0889 4.07869 14.055 8.02233 17.9986C14.0643 24.0409 18.8475 23.6479 19.0995 23.6221C19.5223 23.5712 19.937 23.4667 20.3335 23.3111C20.7652 23.1429 21.1705 22.9134 21.5369 22.6298C21.5682 22.6054 21.6015 22.5837 21.6365 22.5649L22.4596 21.7589C22.8894 21.3477 22.9082 20.6671 22.5018 20.2328L19.1365 16.8675C18.7016 16.4614 18.0204 16.4822 17.6111 16.9142L15.9151 18.6099C15.7039 18.8209 15.3787 18.8671 15.117 18.7232C15.0086 18.6634 14.896 18.601 14.7779 18.5344C11.634 16.9424 9.08019 14.3886 7.48823 11.2447L7.45423 11.1836C7.40377 11.0923 7.35469 11.0037 7.30629 10.919C7.15603 10.6561 7.20047 10.3252 7.41476 10.1113L9.11176 8.41528C9.54426 8.00559 9.56451 7.32345 9.15707 6.88883L5.79147 3.5222C5.59511 3.32755 5.32744 3.22207 5.05107 3.23044C4.75842 3.23674 4.47946 3.35562 4.27223 3.56236L3.37874 4.51112C3.21016 4.73015 3.0613 4.96367 2.93389 5.20895C2.82309 5.42153 2.6073 5.55886 2.3678 5.5692C2.1283 5.57953 1.90147 5.46131 1.77277 5.25907C1.64406 5.05682 1.63303 4.80127 1.74383 4.58869C1.91379 4.26155 2.11349 3.95074 2.3404 3.66019C2.35276 3.6444 2.36615 3.62896 2.37988 3.61419L3.30254 2.63454L3.31662 2.62012C3.76951 2.16337 4.38257 1.9011 5.02567 1.88899C5.66683 1.872 6.28675 2.11952 6.73988 2.57344L10.1059 5.94007C11.0364 6.89881 11.0161 8.42956 10.0606 9.36334L8.72157 10.702C10.1719 13.543 12.4827 15.8531 15.3241 17.3025L16.6621 15.9648C17.5955 15.01 19.1248 14.9889 20.0843 15.9174L23.4513 19.2847C24.3804 20.2443 24.3606 21.7739 23.407 22.709L23.4015 22.7145L22.4404 23.6557C22.374 23.7209 22.2948 23.7715 22.2077 23.8044C21.7799 24.1154 21.3137 24.3698 20.8206 24.5612C20.3171 24.7585 19.7906 24.8908 19.2537 24.9549L19.2447 24.9559C19.084 24.9712 18.9225 24.9784 18.761 24.9773ZM13.0836 5.36412C17.2527 5.36883 20.6312 8.74734 20.6359 12.9164C20.6369 13.1567 20.5093 13.3792 20.3013 13.4996C20.0934 13.6201 19.8369 13.6202 19.629 13.4998C19.421 13.3794 19.2932 13.157 19.2941 12.9167C19.2901 9.48843 16.5119 6.71024 13.0836 6.70624C12.713 6.70624 12.4126 6.4058 12.4126 6.03518C12.4126 5.66456 12.713 5.36412 13.0836 5.36412Z" fill="#F9572E"/>
        <path d="M12.5677 1L12.568 0.75H12.5677V1ZM25 13.4323L25.25 13.4322V13.432L25 13.4323ZM12.5677 2.34212L12.568 2.09212H12.5677V2.34212ZM23.6582 13.4326L23.9082 13.4326V13.4324L23.6582 13.4326ZM23.9938 14.0136L23.8689 14.2301V14.2301L23.9938 14.0136ZM24.6647 14.0134L24.5397 13.7969L24.6647 14.0134ZM15.4428 24.3972L15.3595 24.6329L15.3628 24.6341L15.4428 24.3972ZM18.761 24.9773L18.7559 25.2273L18.7594 25.2273L18.761 24.9773ZM7.07323 18.9474L7.2552 18.7758L7.25002 18.7706L7.07323 18.9474ZM1.00005 8.0978L1.25003 8.09466L1.25003 8.09465L1.00005 8.0978ZM1.1906 7.62094L1.01162 7.44639L1.01162 7.44639L1.1906 7.62094ZM1.66253 7.4185V7.16848L1.65941 7.16852L1.66253 7.4185ZM1.67111 7.4185L1.67122 7.1685H1.67111V7.4185ZM2.34182 8.08098L2.5918 8.07781L2.5918 8.07778L2.34182 8.08098ZM8.02233 17.9986L8.19911 17.8218L8.19911 17.8218L8.02233 17.9986ZM19.0995 23.6221L19.1249 23.8709L19.1293 23.8703L19.0995 23.6221ZM20.3335 23.3111L20.2427 23.0782L20.2421 23.0784L20.3335 23.3111ZM21.5369 22.6298L21.69 22.8274L21.6905 22.827L21.5369 22.6298ZM21.6365 22.5649L21.7548 22.7851L21.786 22.7683L21.8114 22.7435L21.6365 22.5649ZM22.4596 21.7589L22.2867 21.5782L22.2847 21.5803L22.4596 21.7589ZM22.5018 20.2328L22.6844 20.0619L22.6786 20.056L22.5018 20.2328ZM19.1365 16.8675L19.3134 16.6907L19.3072 16.6848L19.1365 16.8675ZM17.6111 16.9142L17.7879 17.0911L17.7926 17.0862L17.6111 16.9142ZM15.9151 18.6099L16.0918 18.7868L16.0919 18.7867L15.9151 18.6099ZM15.117 18.7232L14.9965 18.9422L14.9966 18.9422L15.117 18.7232ZM14.7779 18.5344L14.9008 18.3164L14.8909 18.3113L14.7779 18.5344ZM7.48823 11.2447L7.71144 11.1317L7.70669 11.1231L7.48823 11.2447ZM7.45423 11.1836L7.23543 11.3045L7.23578 11.3052L7.45423 11.1836ZM7.30629 10.919L7.52341 10.795L7.52333 10.7949L7.30629 10.919ZM7.41476 10.1113L7.59137 10.2882L7.59149 10.2881L7.41476 10.1113ZM9.11176 8.41528L8.93977 8.23372L8.93504 8.23845L9.11176 8.41528ZM9.15707 6.88883L9.33956 6.71776L9.33388 6.71208L9.15707 6.88883ZM5.79147 3.5222L5.96828 3.34545L5.96748 3.34465L5.79147 3.5222ZM5.05107 3.23044L5.05645 3.48039L5.05864 3.48033L5.05107 3.23044ZM4.27223 3.56236L4.09558 3.38529L4.09023 3.39096L4.27223 3.56236ZM3.37874 4.51112L3.19674 4.33972L3.18822 4.34878L3.18063 4.35864L3.37874 4.51112ZM2.93389 5.20895L3.15559 5.3245L3.15575 5.32419L2.93389 5.20895ZM2.3678 5.5692L2.35702 5.31943H2.35702L2.3678 5.5692ZM1.74383 4.58869L1.96553 4.70424L1.96568 4.70395L1.74383 4.58869ZM2.3404 3.66019L2.14354 3.50609L2.14337 3.50631L2.3404 3.66019ZM2.37988 3.61419L2.19789 3.44278L2.19678 3.44398L2.37988 3.61419ZM3.30254 2.63454L3.12364 2.45986L3.12055 2.46314L3.30254 2.63454ZM3.31662 2.62012L3.13909 2.44409L3.13775 2.44546L3.31662 2.62012ZM5.02567 1.88899L5.03038 2.13895L5.0323 2.1389L5.02567 1.88899ZM6.73988 2.57344L6.56295 2.75006L6.56309 2.7502L6.73988 2.57344ZM10.1059 5.94007L10.2853 5.76594L10.2827 5.76331L10.1059 5.94007ZM10.0606 9.36334L9.88583 9.18453L9.88382 9.18654L10.0606 9.36334ZM8.72157 10.702L8.54482 10.5252L8.41625 10.6538L8.49891 10.8157L8.72157 10.702ZM15.3241 17.3025L15.2105 17.5252L15.3723 17.6077L15.5008 17.4792L15.3241 17.3025ZM16.6621 15.9648L16.8388 16.1416L16.8408 16.1396L16.6621 15.9648ZM20.0843 15.9174L20.2611 15.7406L20.2582 15.7378L20.0843 15.9174ZM23.4513 19.2847L23.6309 19.1108L23.6281 19.108L23.4513 19.2847ZM23.407 22.709L23.232 22.5305L23.2302 22.5323L23.407 22.709ZM23.4015 22.7145L23.5765 22.8932L23.5783 22.8913L23.4015 22.7145ZM22.4404 23.6557L22.2655 23.4771L22.2653 23.4773L22.4404 23.6557ZM22.2077 23.8044L22.1195 23.5704L22.0879 23.5823L22.0607 23.6022L22.2077 23.8044ZM20.8206 24.5612L20.7301 24.3282L20.7294 24.3285L20.8206 24.5612ZM19.2537 24.9549L19.2815 25.2034L19.2833 25.2032L19.2537 24.9549ZM19.2447 24.9559L19.2684 25.2049L19.2726 25.2044L19.2447 24.9559ZM20.6359 12.9164L20.3859 12.9167L20.3859 12.9174L20.6359 12.9164ZM13.0836 5.36412L13.0839 5.11412H13.0836V5.36412ZM20.3013 13.4996L20.176 13.2833L20.176 13.2833L20.3013 13.4996ZM19.629 13.4998L19.7542 13.2834L19.629 13.4998ZM19.2941 12.9167L19.5441 12.9176L19.5441 12.9164L19.2941 12.9167ZM13.0836 6.70624L13.0839 6.45624H13.0836V6.70624ZM12.5674 1.25C19.2925 1.25765 24.7424 6.7075 24.75 13.4326L25.25 13.432C25.242 6.43123 19.5688 0.757966 12.568 0.75L12.5674 1.25ZM12.1467 1.67106C12.1467 1.43851 12.3352 1.25 12.5677 1.25V0.75C12.059 0.75 11.6467 1.16237 11.6467 1.67106H12.1467ZM12.5677 2.09212C12.3352 2.09212 12.1467 1.90361 12.1467 1.67106H11.6467C11.6467 2.17975 12.059 2.59212 12.5677 2.59212V2.09212ZM23.9082 13.4324C23.9012 7.17223 18.8281 2.09915 12.568 2.09212L12.5674 2.59212C18.5519 2.59884 23.4015 7.4485 23.4082 13.4329L23.9082 13.4324ZM24.1188 13.797C23.9885 13.7219 23.9083 13.5829 23.9082 13.4326L23.4082 13.4327C23.4083 13.7617 23.5839 14.0657 23.8689 14.2301L24.1188 13.797ZM24.5397 13.7969C24.4095 13.8721 24.249 13.8722 24.1188 13.797L23.8689 14.2301C24.1538 14.3945 24.5049 14.3944 24.7898 14.2299L24.5397 13.7969ZM24.75 13.4324C24.7501 13.5827 24.6699 13.7217 24.5397 13.7969L24.7898 14.2299C25.0747 14.0653 25.2501 13.7612 25.25 13.4322L24.75 13.4324ZM15.3628 24.6341C16.4569 25.0037 17.6012 25.2037 18.7559 25.2272L18.7661 24.7274C17.6624 24.7049 16.5687 24.5137 15.5228 24.1604L15.3628 24.6341ZM6.89134 19.1189C9.23509 21.6045 12.1382 23.4949 15.3595 24.6329L15.5261 24.1615C12.3798 23.05 9.54428 21.2036 7.25513 18.7759L6.89134 19.1189ZM0.750073 8.10094C0.793885 11.5913 2.66837 14.8957 6.89645 19.1241L7.25002 18.7706C3.04985 14.5701 1.29134 11.3856 1.25003 8.09466L0.750073 8.10094ZM1.01162 7.44639C0.841081 7.62126 0.746999 7.85671 0.750073 8.10095L1.25003 8.09465C1.24863 7.98302 1.29163 7.87541 1.36957 7.79548L1.01162 7.44639ZM1.65941 7.16852C1.41517 7.17157 1.18215 7.27152 1.01162 7.44639L1.36957 7.79548C1.44752 7.71556 1.55402 7.66987 1.66565 7.66848L1.65941 7.16852ZM1.67111 7.1685H1.66253V7.6685H1.67111V7.1685ZM2.5918 8.07778C2.58536 7.57389 2.17516 7.16872 1.67122 7.1685L1.671 7.6685C1.90138 7.6686 2.0889 7.85382 2.09184 8.08418L2.5918 8.07778ZM8.19911 17.8218C4.26625 13.889 2.62862 10.9835 2.5918 8.07781L2.09184 8.08415C2.13125 11.1943 3.89113 14.221 7.84556 18.1754L8.19911 17.8218ZM19.0741 23.3734C18.8881 23.3924 14.182 23.8051 8.19911 17.8218L7.84555 18.1754C13.9466 24.2767 18.8069 23.9033 19.1249 23.8708L19.0741 23.3734ZM20.2421 23.0784C19.8654 23.2263 19.4714 23.3256 19.0696 23.3739L19.1293 23.8703C19.5733 23.8169 20.0086 23.7072 20.4248 23.5439L20.2421 23.0784ZM21.3839 22.4321C21.0364 22.7011 20.6521 22.9187 20.2427 23.0782L20.4242 23.5441C20.8783 23.3672 21.3046 23.1258 21.69 22.8274L21.3839 22.4321ZM21.5181 22.3447C21.4708 22.3701 21.4257 22.3995 21.3833 22.4325L21.6905 22.827C21.7108 22.8112 21.7323 22.7972 21.7548 22.7851L21.5181 22.3447ZM22.2847 21.5803L21.4615 22.3863L21.8114 22.7435L22.6345 21.9375L22.2847 21.5803ZM22.3192 20.4036C22.6321 20.7379 22.6176 21.2617 22.2868 21.5783L22.6324 21.9395C23.1612 21.4336 23.1844 20.5964 22.6843 20.062L22.3192 20.4036ZM18.9598 17.0443L22.325 20.4096L22.6786 20.056L19.3133 16.6908L18.9598 17.0443ZM17.7926 17.0862C18.1074 16.7539 18.6314 16.7378 18.9659 17.0503L19.3072 16.6848C18.7718 16.1849 17.9334 16.2106 17.4296 16.7423L17.7926 17.0862ZM16.0919 18.7867L17.7879 17.091L17.4344 16.7374L15.7384 18.4331L16.0919 18.7867ZM14.9966 18.9422C15.3556 19.1397 15.8019 19.0764 16.0918 18.7868L15.7384 18.433C15.6058 18.5655 15.4017 18.5944 15.2375 18.5041L14.9966 18.9422ZM14.6551 18.7521C14.7741 18.8193 14.8875 18.8822 14.9965 18.9422L15.2376 18.5042C15.1297 18.4447 15.0178 18.3827 14.9007 18.3166L14.6551 18.7521ZM7.2652 11.3576C8.8812 14.549 11.4736 17.1414 14.665 18.7574L14.8909 18.3113C11.7944 16.7434 9.27919 14.2282 7.71127 11.1318L7.2652 11.3576ZM7.23578 11.3052L7.26978 11.3663L7.70669 11.1231L7.67269 11.062L7.23578 11.3052ZM7.08918 11.0429C7.13662 11.126 7.18494 11.2132 7.23543 11.3045L7.67304 11.0627C7.62261 10.9714 7.57277 10.8815 7.52341 10.795L7.08918 11.0429ZM7.23815 9.93434C6.94399 10.2279 6.88298 10.6822 7.08926 11.043L7.52333 10.7949C7.42907 10.63 7.45695 10.4224 7.59137 10.2882L7.23815 9.93434ZM8.93504 8.23845L7.23804 9.93445L7.59149 10.2881L9.28849 8.59211L8.93504 8.23845ZM8.97468 7.05981C9.28804 7.39407 9.27246 7.91869 8.93984 8.23378L9.28369 8.59678C9.81606 8.09248 9.84098 7.25283 9.33946 6.71785L8.97468 7.05981ZM5.61467 3.69895L8.98027 7.06558L9.33388 6.71208L5.96828 3.34545L5.61467 3.69895ZM5.05864 3.48033C5.26649 3.47403 5.4678 3.55336 5.61547 3.69975L5.96748 3.34465C5.72243 3.10174 5.38839 2.97011 5.0435 2.98055L5.05864 3.48033ZM4.4488 3.73934C4.61048 3.57805 4.82812 3.48529 5.05645 3.48038L5.0457 2.9805C4.68872 2.98818 4.34844 3.13319 4.09567 3.38537L4.4488 3.73934ZM3.56074 4.68252L4.45423 3.73376L4.09023 3.39096L3.19674 4.33972L3.56074 4.68252ZM3.15575 5.32419C3.27636 5.092 3.41727 4.87094 3.57686 4.6636L3.18063 4.35864C3.00305 4.58936 2.84624 4.83534 2.71204 5.09371L3.15575 5.32419ZM2.37858 5.81896C2.70731 5.80478 3.00351 5.61629 3.15559 5.3245L2.7122 5.0934C2.64268 5.22678 2.50729 5.31294 2.35702 5.31943L2.37858 5.81896ZM1.56185 5.39329C1.73851 5.67088 2.04984 5.83315 2.37858 5.81896L2.35702 5.31943C2.20675 5.32591 2.06443 5.25174 1.98368 5.12485L1.56185 5.39329ZM1.52214 4.47314C1.37006 4.76493 1.3852 5.11569 1.56185 5.39329L1.98368 5.12485C1.90293 4.99795 1.89601 4.83762 1.96553 4.70424L1.52214 4.47314ZM2.14337 3.50631C1.90702 3.80895 1.69902 4.13269 1.52199 4.47343L1.96568 4.70395C2.12857 4.39041 2.31996 4.09253 2.53744 3.81407L2.14337 3.50631ZM2.19678 3.44398C2.1792 3.46289 2.16105 3.48373 2.14354 3.50609L2.53726 3.81429C2.54448 3.80507 2.55311 3.79503 2.56299 3.7844L2.19678 3.44398ZM3.12055 2.46314L2.19789 3.44279L2.56187 3.78559L3.48453 2.80594L3.12055 2.46314ZM3.13775 2.44546L3.12367 2.45988L3.48142 2.8092L3.4955 2.79478L3.13775 2.44546ZM5.02097 1.63903C4.31283 1.65237 3.63778 1.94116 3.1391 2.4441L3.49415 2.79614C3.90124 2.38558 4.45231 2.14983 5.03038 2.13895L5.02097 1.63903ZM6.91681 2.39682C6.41516 1.89429 5.72886 1.62027 5.01905 1.63908L5.0323 2.1389C5.6048 2.12373 6.15834 2.34475 6.56295 2.75006L6.91681 2.39682ZM10.2827 5.76331L6.91668 2.39668L6.56309 2.7502L9.92909 6.11683L10.2827 5.76331ZM10.2353 9.54214C11.2893 8.5121 11.3117 6.82354 10.2853 5.76596L9.92648 6.11418C10.761 6.97409 10.7429 8.34703 9.88584 9.18454L10.2353 9.54214ZM8.89833 10.8788L10.2373 9.54014L9.88382 9.18654L8.54482 10.5252L8.89833 10.8788ZM15.4377 17.0798C12.6432 15.6543 10.3706 13.3824 8.94424 10.5884L8.49891 10.8157C9.97315 13.7036 12.3221 16.0518 15.2105 17.5252L15.4377 17.0798ZM16.4853 15.788L15.1473 17.1257L15.5008 17.4792L16.8388 16.1416L16.4853 15.788ZM20.2582 15.7378C19.1998 14.7136 17.5129 14.7369 16.4833 15.79L16.8408 16.1396C17.678 15.2832 19.0498 15.2642 19.9104 16.0971L20.2582 15.7378ZM23.6281 19.108L20.2611 15.7407L19.9075 16.0942L23.2745 19.4615L23.6281 19.108ZM23.5821 22.8875C24.6338 21.8561 24.6556 20.1691 23.6309 19.1108L23.2717 19.4586C24.1052 20.3194 24.0874 21.6916 23.232 22.5306L23.5821 22.8875ZM23.5783 22.8913L23.5838 22.8858L23.2302 22.5323L23.2248 22.5378L23.5783 22.8913ZM22.6153 23.8343L23.5765 22.8931L23.2266 22.5359L22.2655 23.4771L22.6153 23.8343ZM22.2959 24.0383C22.4155 23.9932 22.5243 23.9237 22.6155 23.8342L22.2653 23.4773C22.2237 23.5181 22.174 23.5499 22.1195 23.5704L22.2959 24.0383ZM20.9111 24.7943C21.4242 24.595 21.9095 24.3303 22.3547 24.0066L22.0607 23.6022C21.6503 23.9005 21.2031 24.1445 20.7301 24.3282L20.9111 24.7943ZM19.2833 25.2032C19.8413 25.1366 20.3886 24.9991 20.9118 24.794L20.7294 24.3285C20.2457 24.518 19.7398 24.6451 19.224 24.7067L19.2833 25.2032ZM19.2726 25.2044L19.2815 25.2034L19.2258 24.7065L19.2169 24.7075L19.2726 25.2044ZM18.7594 25.2273C18.9293 25.2284 19.0992 25.2209 19.2684 25.2048L19.2211 24.7071C19.0687 24.7215 18.9157 24.7283 18.7626 24.7273L18.7594 25.2273ZM20.8859 12.9161C20.881 8.60921 17.3908 5.11898 13.0839 5.11412L13.0833 5.61412C17.1145 5.61867 20.3813 8.88547 20.3859 12.9167L20.8859 12.9161ZM20.4267 13.716C20.7121 13.5506 20.8872 13.2452 20.8859 12.9154L20.3859 12.9174C20.3865 13.0682 20.3064 13.2077 20.176 13.2833L20.4267 13.716ZM19.5037 13.7162C19.7892 13.8814 20.1413 13.8813 20.4267 13.7159L20.176 13.2833C20.0456 13.3589 19.8847 13.3589 19.7542 13.2834L19.5037 13.7162ZM19.0441 12.9158C19.0429 13.2457 19.2182 13.551 19.5037 13.7162L19.7542 13.2834C19.6237 13.2079 19.5436 13.0684 19.5441 12.9176L19.0441 12.9158ZM13.0833 6.95624C16.3738 6.96008 19.0403 9.62656 19.0441 12.917L19.5441 12.9164C19.54 9.3503 16.6501 6.4604 13.0839 6.45624L13.0833 6.95624ZM12.1626 6.03518C12.1626 6.54387 12.5749 6.95624 13.0836 6.95624V6.45624C12.8511 6.45624 12.6626 6.26772 12.6626 6.03518H12.1626ZM13.0836 5.11412C12.5749 5.11412 12.1626 5.52649 12.1626 6.03518H12.6626C12.6626 5.80263 12.8511 5.61412 13.0836 5.61412V5.11412Z" fill="#F9572E"/>
    </symbol>
    <symbol id="icon-fb" viewBox="0 0 51 51">
        <rect x="0.962402" y="0.923828" width="50" height="50" fill="#F9572E"/>
        <path d="M32.1909 23.1684H28.0702V21.1587C28.0702 21.1587 27.8396 19.2456 29.1782 19.2456H31.8892V15.1284H27.2687C27.2687 15.1284 23.4026 15.1152 23.4026 18.9957C23.4026 19.8298 23.3978 21.3481 23.393 23.1684H20.7388V26.4828H23.3833C23.37 31.7538 23.3507 37.6284 23.3507 37.6284H28.0702V26.4828H31.1867L32.1909 23.1684Z" fill="white"/>
    </symbol>
    <symbol id="icon-vk" viewBox="0 0 51 51">
        <rect x="0.962402" y="0.923828" width="50" height="50" fill="#F9572E"/>
        <path d="M41.3751 33.6441C41.3462 33.5805 41.3139 33.5186 41.2784 33.4584C40.5004 32.2331 39.546 31.129 38.446 30.1819L38.4169 30.1517L38.4016 30.1373L38.3866 30.1223H38.3723C37.7396 29.519 37.3392 29.1138 37.1709 28.9066C36.8757 28.5797 36.7948 28.1122 36.9629 27.7051C37.3383 27.0124 37.7857 26.3613 38.2977 25.7625C38.7029 25.239 39.024 24.8189 39.2609 24.5023C40.9718 22.2282 41.7133 20.7749 41.4855 20.1425L41.3975 19.9948C41.273 19.8682 41.1127 19.7829 40.9381 19.7505C40.6277 19.6726 40.3046 19.6599 39.989 19.7132L35.7178 19.7425C35.6203 19.7182 35.5179 19.721 35.4218 19.7505C35.2931 19.7799 35.2282 19.7949 35.2282 19.7949L35.1545 19.8324L35.0958 19.8768C35.0326 19.9186 34.9772 19.9712 34.9322 20.0322C34.8706 20.111 34.821 20.1985 34.7848 20.2917C34.3414 21.4425 33.8107 22.5578 33.1975 23.6279C32.8315 24.241 32.4953 24.7724 32.189 25.2222C31.9595 25.5737 31.7018 25.906 31.4185 26.2157C31.243 26.3992 31.0547 26.57 30.8549 26.7267C30.6861 26.8557 30.5583 26.9098 30.4693 26.8903C30.3803 26.8698 30.296 26.8503 30.217 26.8307C30.0766 26.7402 29.9618 26.6151 29.8837 26.4674C29.791 26.287 29.7331 26.0907 29.7131 25.8888C29.6838 25.6568 29.6662 25.4568 29.6605 25.2889C29.6562 25.121 29.6587 24.8828 29.6685 24.577C29.6783 24.2704 29.6838 24.0624 29.6838 23.9541C29.6838 23.5781 29.6909 23.1701 29.7052 22.7304C29.7202 22.2904 29.7326 21.942 29.7425 21.6852C29.7523 21.4285 29.7573 21.1565 29.7575 20.8694C29.7624 20.6434 29.7449 20.4174 29.7051 20.1949C29.6708 20.0315 29.6186 19.8723 29.5495 19.7203C29.4861 19.5741 29.3802 19.4503 29.2456 19.3649C29.0919 19.2723 28.9245 19.2045 28.7496 19.164C28.0905 19.0322 27.4198 18.9676 26.7476 18.9711C25.5543 18.871 24.3528 18.9918 23.2034 19.3276C22.9902 19.4403 22.7993 19.5909 22.6401 19.7719C22.4624 19.9897 22.4375 20.1084 22.5654 20.1282C23.0544 20.1623 23.509 20.392 23.8265 20.7654L23.9152 20.944C24.0131 21.1614 24.0828 21.3905 24.1225 21.6256C24.1955 21.9823 24.24 22.3443 24.2556 22.7081C24.3057 23.325 24.3057 23.9451 24.2556 24.562C24.2069 25.0755 24.1601 25.4757 24.1152 25.7626C24.0842 26.0038 24.0168 26.239 23.9152 26.4601C23.8629 26.5726 23.8032 26.6816 23.7366 26.7863C23.7174 26.8157 23.6923 26.8408 23.6629 26.86C23.5351 26.9097 23.3991 26.935 23.262 26.9346C23.0772 26.9166 22.9019 26.8442 22.7581 26.7267C22.5313 26.5612 22.3249 26.3693 22.1432 26.1552C21.8759 25.8369 21.6352 25.4972 21.4233 25.1396C21.1567 24.7049 20.8801 24.1909 20.5934 23.5976L20.3561 23.1676C20.2076 22.8912 20.0049 22.4883 19.7482 21.9589C19.4914 21.4302 19.2642 20.9186 19.0666 20.4242C18.9994 20.2331 18.875 20.0674 18.7101 19.9496L18.6364 19.9052C18.563 19.8533 18.4832 19.8109 18.3991 19.779C18.2893 19.7343 18.1749 19.7021 18.0579 19.683L13.9949 19.7123C13.6851 19.6738 13.3745 19.7773 13.1497 19.994L13.0901 20.0829C13.0556 20.157 13.0403 20.2387 13.0458 20.3202C13.0517 20.458 13.0818 20.5937 13.1348 20.7211C13.7283 22.1145 14.3734 23.4588 15.0701 24.7538C15.767 26.0497 16.3722 27.0927 16.8858 27.8829C17.4004 28.6739 17.9244 29.4201 18.4578 30.1215C18.992 30.8236 19.3454 31.2736 19.518 31.4715C19.6914 31.6697 19.8274 31.8171 19.9259 31.9158L20.2965 32.2721C20.6226 32.5828 20.9724 32.8678 21.3426 33.1243C21.8345 33.4765 22.3441 33.8034 22.8693 34.1037C23.4836 34.4472 24.1391 34.7112 24.82 34.8893C25.5235 35.0879 26.2548 35.1705 26.9849 35.1336H28.6902C28.9836 35.1266 29.2637 35.0103 29.4758 34.8076L29.5345 34.7339C29.5852 34.6485 29.6227 34.5558 29.6455 34.4591C29.6815 34.3262 29.6991 34.1891 29.6978 34.0514C29.6847 33.6659 29.7169 33.2803 29.7938 32.9023C29.8429 32.6352 29.9278 32.376 30.0464 32.1318C30.1308 31.9712 30.2383 31.8239 30.3654 31.6945C30.4396 31.612 30.5245 31.5398 30.6177 31.4795C30.6559 31.4594 30.6954 31.4419 30.736 31.4269C31.0361 31.3629 31.3486 31.4487 31.5739 31.6572C31.9105 31.9047 32.2145 32.1937 32.4786 32.5174C32.7603 32.8586 33.0986 33.2417 33.4935 33.6665C33.8071 34.0166 34.1548 34.3345 34.5314 34.6156L34.8283 34.7933C35.0718 34.9318 35.3307 35.0413 35.5998 35.1196C35.8655 35.215 36.1512 35.2407 36.4297 35.1942L40.2263 35.1346C40.529 35.151 40.8306 35.0869 41.1006 34.9489C41.2722 34.8664 41.4051 34.7205 41.4712 34.5419C41.5112 34.3763 41.5139 34.2039 41.4792 34.0371C41.4585 33.9028 41.4236 33.7711 41.3752 33.6442L41.3751 33.6441Z" fill="white"/>
    </symbol>
    <symbol id="icon-ig" viewBox="0 0 51 51">
        <rect x="0.962402" y="0.923828" width="50" height="50" fill="#F9572E"/>
        <path fill-rule="evenodd" clip-rule="evenodd" d="M18.8502 15.3788H35.5746C36.3462 15.3598 37.0918 15.6579 37.6375 16.2037C38.1833 16.7494 38.4814 17.495 38.4624 18.2666V34.991C38.4814 35.7625 38.1833 36.5082 37.6375 37.0539C37.0918 37.5997 36.3462 37.8978 35.5746 37.8788H18.8502C18.0786 37.8978 17.333 37.5997 16.7873 37.0539C16.2415 36.5082 15.9434 35.7625 15.9624 34.991V18.2666C15.9434 17.495 16.2415 16.7494 16.7873 16.2037C17.333 15.6579 18.0786 15.3598 18.8502 15.3788ZM32.353 17.8785C31.7941 17.88 31.3415 18.3326 31.34 18.8915V21.3166C31.3415 21.8755 31.7941 22.3281 32.353 22.3297H34.8965C35.455 22.3277 35.9071 21.8751 35.9084 21.3166V18.8915C35.907 18.333 35.455 17.8805 34.8965 17.8785H32.353ZM35.9197 24.8938H33.939C34.1305 25.5193 34.2279 26.1698 34.2277 26.824C34.1088 30.6009 31.0126 33.6011 27.2338 33.6011C23.455 33.6011 20.3588 30.6009 20.2398 26.824C20.2397 26.1698 20.337 25.5193 20.5286 24.8938H18.4633V34.3987C18.4645 34.8923 18.8643 35.2921 19.3579 35.2933H35.0254C35.5189 35.2921 35.9186 34.8922 35.9197 34.3987L35.9197 24.8938ZM27.2338 22.2012C24.8332 22.2768 22.941 24.271 22.9914 26.6722C23.0418 29.0734 25.016 30.9865 27.4176 30.9613C29.8193 30.9361 31.7529 28.982 31.7529 26.5803C31.7135 24.1234 29.6906 22.1633 27.2338 22.2012Z" fill="white"/>
    </symbol>
    <symbol id="icon-mail" viewBox="0 0 32 22">
        <path fill-rule="evenodd" clip-rule="evenodd" d="M31.234 3.55525C31.2301 2.93853 30.9958 2.34556 30.577 1.89277C30.5702 1.88451 30.565 1.8751 30.5615 1.86497C30.5544 1.85786 30.5441 1.85528 30.5363 1.8475C30.0617 1.34732 29.4023 1.06419 28.7128 1.06445H3.75455C3.06437 1.06469 2.40442 1.34768 1.92847 1.8475C1.92073 1.85528 1.91102 1.85786 1.90585 1.86757C1.89926 1.87587 1.89421 1.88528 1.89095 1.89536C1.47126 2.34651 1.23674 2.93908 1.23401 3.55525V18.2381C1.23548 18.8701 1.48077 19.4772 1.91878 19.9329C1.9243 19.9437 1.93101 19.9539 1.93878 19.9633C1.94138 19.9658 1.94655 19.9658 1.94849 19.9704C2.42319 20.4572 3.07453 20.7315 3.75449 20.7308H28.7128C29.393 20.7308 30.0443 20.4558 30.5188 19.9684L30.5291 19.9633C30.5362 19.9555 30.5388 19.9432 30.5491 19.9355C30.9865 19.4784 31.2316 18.8707 31.2339 18.2381L31.234 3.55525ZM21.4131 10.1223L30.0591 2.95389C30.1462 3.14248 30.1919 3.34754 30.193 3.55525V18.2381C30.1923 18.4268 30.1554 18.6136 30.0844 18.7884L21.4131 10.1223ZM28.7128 2.09257C28.9229 2.09291 29.1304 2.13765 29.322 2.22384L16.2324 13.0748L3.14607 2.22384C3.33735 2.13759 3.54474 2.09285 3.75457 2.09257H28.7128ZM2.38306 18.7884C2.31023 18.614 2.27244 18.427 2.27185 18.2381V3.55525C2.27291 3.34725 2.31948 3.14199 2.40828 2.95389L11.0549 10.1223L2.38306 18.7884ZM3.75457 19.7027C3.52373 19.7005 3.29648 19.6452 3.09048 19.541L11.8528 10.7838L15.8994 14.1385C16.0924 14.2997 16.3731 14.2997 16.566 14.1385L20.6152 10.7838L29.3769 19.541C29.171 19.6453 28.9437 19.7006 28.7128 19.7027H3.75457Z" fill="#F9572E"/>
        <path d="M31.234 3.55525L31.584 3.55526L31.584 3.55303L31.234 3.55525ZM30.577 1.89277L30.3067 2.11511L30.3132 2.12295L30.3201 2.13041L30.577 1.89277ZM30.5615 1.86497L30.8927 1.75173L30.8664 1.6749L30.809 1.61749L30.5615 1.86497ZM30.5363 1.8475L30.2823 2.0885L30.2887 2.09483L30.5363 1.8475ZM28.7128 1.06445V1.41445L28.713 1.41445L28.7128 1.06445ZM3.75455 1.06445V0.714453L3.75443 0.714453L3.75455 1.06445ZM1.92847 1.8475L2.17665 2.09441L2.18193 2.08886L1.92847 1.8475ZM1.90585 1.86757L2.17988 2.0853L2.19977 2.06028L2.21479 2.03206L1.90585 1.86757ZM1.89095 1.89536L2.14721 2.13375L2.20006 2.07694L2.22395 2.00311L1.89095 1.89536ZM1.23401 3.55525L0.884009 3.5537V3.55525H1.23401ZM1.23401 18.2381H0.884008L0.88401 18.2389L1.23401 18.2381ZM1.91878 19.9329L2.23063 19.774L2.20707 19.7277L2.17111 19.6903L1.91878 19.9329ZM1.93878 19.9633L1.66948 20.1868L1.6807 20.2003L1.69322 20.2127L1.93878 19.9633ZM1.94849 19.9704L1.62664 20.1079L1.6523 20.168L1.6979 20.2147L1.94849 19.9704ZM3.75449 20.7308V20.3808H3.75415L3.75449 20.7308ZM28.7128 20.7308V21.0808H28.7128L28.7128 20.7308ZM30.5188 19.9684L30.3625 19.6553L30.3094 19.6818L30.268 19.7243L30.5188 19.9684ZM30.5291 19.9633L30.6854 20.2765L30.7437 20.2474L30.7876 20.1992L30.5291 19.9633ZM30.5491 19.9355L30.7597 20.215L30.7824 20.1979L30.802 20.1774L30.5491 19.9355ZM31.2339 18.2381L31.5839 18.2393V18.2381L31.2339 18.2381ZM21.4131 10.1223L21.1898 9.85291L20.8939 10.0982L21.1657 10.3699L21.4131 10.1223ZM30.0591 2.95389L30.3769 2.80719L30.1861 2.39395L29.8358 2.68446L30.0591 2.95389ZM30.193 3.55525H30.543L30.543 3.55335L30.193 3.55525ZM30.193 18.2381L30.543 18.2393V18.2381H30.193ZM30.0844 18.7884L29.837 19.0359L30.21 19.4087L30.4086 18.9202L30.0844 18.7884ZM28.7128 2.09257L28.7134 1.74257H28.7128V2.09257ZM29.322 2.22384L29.5453 2.4933L29.9775 2.13505L29.4656 1.90468L29.322 2.22384ZM16.2324 13.0748L16.009 13.3443L16.2324 13.5295L16.4558 13.3443L16.2324 13.0748ZM3.14607 2.22384L3.00219 1.90478L2.49097 2.13531L2.92266 2.49327L3.14607 2.22384ZM3.75457 2.09257V1.74257L3.75411 1.74257L3.75457 2.09257ZM2.38306 18.7884L2.0601 18.9233L2.26127 19.4049L2.63046 19.0359L2.38306 18.7884ZM2.27185 18.2381H1.92185L1.92185 18.2392L2.27185 18.2381ZM2.27185 3.55525L1.92185 3.55347V3.55525H2.27185ZM2.40828 2.95389L2.63166 2.68445L2.28437 2.39653L2.09178 2.80447L2.40828 2.95389ZM11.0549 10.1223L11.3023 10.3699L11.5742 10.0982L11.2783 9.8529L11.0549 10.1223ZM3.75457 19.7027L3.75131 20.0527H3.75457V19.7027ZM3.09048 19.541L2.84306 19.2935L2.50115 19.6352L2.93251 19.8533L3.09048 19.541ZM11.8528 10.7838L12.0762 10.5144L11.8309 10.311L11.6054 10.5363L11.8528 10.7838ZM15.8994 14.1385L16.1238 13.8699L16.1228 13.8691L15.8994 14.1385ZM16.566 14.1385L16.3428 13.869L16.3417 13.8699L16.566 14.1385ZM20.6152 10.7838L20.8626 10.5363L20.6373 10.311L20.3919 10.5143L20.6152 10.7838ZM29.3769 19.541L29.535 19.8533L29.9661 19.6351L29.6244 19.2935L29.3769 19.541ZM28.7128 19.7027V20.0527L28.716 20.0527L28.7128 19.7027ZM31.584 3.55303C31.5795 2.84898 31.312 2.17204 30.834 1.65514L30.3201 2.13041C30.6795 2.51908 30.8807 3.02809 30.884 3.55748L31.584 3.55303ZM30.8473 1.67044C30.8672 1.69462 30.8826 1.72216 30.8927 1.75173L30.2303 1.97821C30.2474 2.02803 30.2732 2.07441 30.3067 2.11511L30.8473 1.67044ZM30.809 1.61749C30.7848 1.59332 30.7619 1.57698 30.7468 1.56716C30.7393 1.56223 30.7329 1.5584 30.7287 1.55599C30.7249 1.55379 30.7213 1.55174 30.7211 1.55161C30.7199 1.55096 30.7216 1.5519 30.7239 1.55325C30.7264 1.55473 30.7309 1.55746 30.7365 1.56119C30.7478 1.56873 30.7652 1.58143 30.7839 1.60018L30.2887 2.09483C30.3113 2.11747 30.3329 2.1334 30.3485 2.14384C30.3563 2.14902 30.363 2.15311 30.3678 2.1559C30.3723 2.15856 30.3762 2.16076 30.3773 2.16137C30.3793 2.16249 30.3778 2.16168 30.3762 2.16076C30.3743 2.15962 30.37 2.15708 30.3645 2.15352C30.3536 2.14643 30.3346 2.13307 30.314 2.11246L30.809 1.61749ZM30.7902 1.60659C30.2494 1.03673 29.4983 0.714152 28.7127 0.714453L28.713 1.41445C29.3064 1.41423 29.8739 1.65792 30.2824 2.08842L30.7902 1.60659ZM28.7128 0.714453H3.75455V1.41445H28.7128V0.714453ZM3.75443 0.714453C2.96849 0.714719 2.21699 1.03698 1.675 1.60614L2.18193 2.08886C2.59185 1.65839 3.16024 1.41465 3.75467 1.41445L3.75443 0.714453ZM1.68034 1.60065C1.69727 1.58364 1.71223 1.57256 1.71876 1.5679C1.72181 1.56571 1.72412 1.56417 1.72322 1.56478C1.72322 1.56478 1.72191 1.56566 1.72087 1.56637C1.71961 1.56722 1.71767 1.56855 1.71537 1.57016C1.69735 1.58279 1.63877 1.62446 1.59691 1.70308L2.21479 2.03206C2.17809 2.10098 2.12696 2.1365 2.11702 2.14347C2.11505 2.14485 2.11305 2.14619 2.11533 2.14465C2.11651 2.14385 2.1209 2.14089 2.12604 2.13721C2.13672 2.12957 2.1558 2.11526 2.17659 2.09435L1.68034 1.60065ZM1.63181 1.64985C1.59914 1.69097 1.57412 1.73764 1.55795 1.78762L2.22395 2.00311C2.2143 2.03293 2.19938 2.06076 2.17988 2.0853L1.63181 1.64985ZM1.63469 1.65697C1.15512 2.17249 0.887128 2.84962 0.884012 3.5537L1.58401 3.5568C1.58634 3.02855 1.7874 2.52053 2.14721 2.13375L1.63469 1.65697ZM0.884009 3.55525V18.2381H1.58401V3.55525H0.884009ZM0.88401 18.2389C0.88569 18.9611 1.16597 19.6548 1.66645 20.1754L2.17111 19.6903C1.79557 19.2997 1.58527 18.7792 1.58401 18.2373L0.88401 18.2389ZM1.60693 20.0918C1.6242 20.1257 1.64518 20.1576 1.66948 20.1868L2.20808 19.7397C2.21684 19.7503 2.2244 19.7618 2.23063 19.774L1.60693 20.0918ZM1.69322 20.2127C1.73356 20.2524 1.77373 20.2726 1.7873 20.2792C1.79143 20.2812 1.79486 20.2828 1.79707 20.2838C1.79917 20.2848 1.80092 20.2855 1.80118 20.2857C1.80306 20.2865 1.79835 20.2844 1.79319 20.282C1.78274 20.277 1.75257 20.2622 1.71985 20.2344C1.68387 20.2038 1.64967 20.1618 1.62664 20.1079L2.27034 19.8328C2.24634 19.7767 2.21077 19.733 2.17319 19.701C2.13887 19.6719 2.10688 19.6561 2.09458 19.6502C2.09112 19.6485 2.08827 19.6472 2.08654 19.6465C2.08566 19.6461 2.08493 19.6457 2.08449 19.6456C2.08427 19.6455 2.08408 19.6454 2.08397 19.6453C2.08392 19.6453 2.08386 19.6453 2.08384 19.6453C2.0838 19.6452 2.0838 19.6452 2.08379 19.6452C2.0828 19.6448 2.08833 19.6472 2.09494 19.6504C2.10675 19.6562 2.1453 19.6754 2.18434 19.7139L1.69322 20.2127ZM1.6979 20.2147C2.23855 20.7692 2.98039 21.0815 3.75482 21.0808L3.75415 20.3808C3.16867 20.3814 2.60782 20.1452 2.19908 19.726L1.6979 20.2147ZM3.75449 21.0808H28.7128V20.3808H3.75449V21.0808ZM28.7128 21.0808C29.4874 21.0807 30.2292 20.7676 30.7695 20.2126L30.268 19.7243C29.8594 20.144 29.2985 20.3808 28.7127 20.3808L28.7128 21.0808ZM30.675 20.2816L30.6854 20.2765L30.3729 19.6501L30.3625 19.6553L30.675 20.2816ZM30.7876 20.1992C30.8003 20.1853 30.8103 20.1723 30.8178 20.1616C30.8253 20.1509 30.831 20.1417 30.8348 20.1353C30.8385 20.129 30.8414 20.1238 30.8425 20.1219C30.8443 20.1185 30.8433 20.1204 30.8428 20.1212C30.8413 20.124 30.8336 20.1377 30.8209 20.1543C30.8074 20.172 30.7875 20.1941 30.7597 20.215L30.3385 19.6559C30.2733 19.705 30.2412 19.763 30.233 19.7775C30.2318 19.7796 30.2309 19.7814 30.2303 19.7825C30.23 19.783 30.2297 19.7835 30.2295 19.7838C30.2293 19.7841 30.2293 19.7842 30.2292 19.7843C30.2289 19.7849 30.2305 19.7821 30.2327 19.7782C30.237 19.771 30.2495 19.7505 30.2706 19.7273L30.7876 20.1992ZM30.802 20.1774C31.3014 19.6555 31.5813 18.9617 31.5839 18.2393L30.8839 18.2368C30.882 18.7798 30.6716 19.3012 30.2962 19.6935L30.802 20.1774ZM31.5839 18.2381L31.584 3.55526L30.884 3.55525L30.8839 18.2381L31.5839 18.2381ZM21.6365 10.3918L30.2825 3.22333L29.8358 2.68446L21.1898 9.85291L21.6365 10.3918ZM29.7414 3.1006C29.8075 3.24378 29.8421 3.39946 29.843 3.55715L30.543 3.55335C30.5416 3.29562 30.485 3.04119 30.3769 2.80719L29.7414 3.1006ZM29.843 3.55525V18.2381H30.543V3.55525H29.843ZM29.843 18.2368C29.8425 18.3807 29.8143 18.5232 29.7601 18.6566L30.4086 18.9202C30.4965 18.7039 30.5421 18.4728 30.543 18.2393L29.843 18.2368ZM30.3318 18.5408L21.6606 9.87478L21.1657 10.3699L29.837 19.0359L30.3318 18.5408ZM28.7123 2.44257C28.873 2.44283 29.0318 2.47706 29.1783 2.54301L29.4656 1.90468C29.2291 1.79824 28.9728 1.74299 28.7134 1.74257L28.7123 2.44257ZM29.0986 1.95439L16.009 12.8054L16.4558 13.3443L29.5453 2.4933L29.0986 1.95439ZM16.4558 12.8054L3.36947 1.95442L2.92266 2.49327L16.009 13.3443L16.4558 12.8054ZM3.28994 2.5429C3.43614 2.47698 3.59465 2.44278 3.75503 2.44257L3.75411 1.74257C3.49483 1.74291 3.23856 1.7982 3.00219 1.90478L3.28994 2.5429ZM3.75457 2.44257H28.7128V1.74257H3.75457V2.44257ZM2.70602 18.6535C2.6509 18.5215 2.6223 18.38 2.62185 18.237L1.92185 18.2392C1.92259 18.4741 1.96956 18.7065 2.0601 18.9233L2.70602 18.6535ZM2.62185 18.2381V3.55525H1.92185V18.2381H2.62185ZM2.62184 3.55704C2.62265 3.4001 2.65778 3.24524 2.72478 3.10331L2.09178 2.80447C1.98117 3.03875 1.92318 3.29439 1.92185 3.55347L2.62184 3.55704ZM2.1849 3.22334L10.8315 10.3918L11.2783 9.8529L2.63166 2.68445L2.1849 3.22334ZM10.8075 9.87477L2.13565 18.5408L2.63046 19.0359L11.3023 10.3699L10.8075 9.87477ZM3.75783 19.3527C3.58076 19.351 3.40646 19.3086 3.24845 19.2287L2.93251 19.8533C3.18651 19.9818 3.46669 20.05 3.75131 20.0527L3.75783 19.3527ZM3.33789 19.7886L12.1003 11.0314L11.6054 10.5363L2.84306 19.2935L3.33789 19.7886ZM11.6295 11.0533L15.676 14.408L16.1228 13.8691L12.0762 10.5144L11.6295 11.0533ZM15.675 14.4071C15.9979 14.6768 16.4676 14.6768 16.7904 14.4071L16.3417 13.8699C16.2786 13.9226 16.1869 13.9226 16.1238 13.8699L15.675 14.4071ZM16.7893 14.408L20.8385 11.0533L20.3919 10.5143L16.3428 13.869L16.7893 14.408ZM20.3678 11.0314L29.1295 19.7886L29.6244 19.2935L20.8626 10.5363L20.3678 11.0314ZM29.2189 19.2287C29.0609 19.3087 28.8867 19.3511 28.7097 19.3527L28.716 20.0527C29.0007 20.0501 29.281 19.9819 29.535 19.8533L29.2189 19.2287ZM28.7128 19.3527H3.75457V20.0527H28.7128V19.3527Z" fill="#F9572E"/>
    </symbol>
</svg>
